<?xml version="1.0" encoding="UTF-8" standalone="no"?>
<svg
   viewBox="0 0 1125.3414 926.32428"
   version="1.1"
   id="svg536"
   sodipodi:docname="wfh_1.svg"
   inkscape:version="1.2.2 (732a01da63, 2022-12-09)"
   width="1125.3414"
   height="926.32428"
   xmlns:inkscape="http://www.inkscape.org/namespaces/inkscape"
   xmlns:sodipodi="http://sodipodi.sourceforge.net/DTD/sodipodi-0.dtd"
   xmlns="http://www.w3.org/2000/svg"
   xmlns:svg="http://www.w3.org/2000/svg">
  <sodipodi:namedview
     id="namedview538"
     pagecolor="#ffffff"
     bordercolor="#000000"
     borderopacity="0.25"
     inkscape:showpageshadow="2"
     inkscape:pageopacity="0.0"
     inkscape:pagecheckerboard="0"
     inkscape:deskcolor="#d1d1d1"
     showgrid="false"
     inkscape:zoom="0.5"
     inkscape:cx="415"
     inkscape:cy="315"
     inkscape:window-width="1920"
     inkscape:window-height="1001"
     inkscape:window-x="-9"
     inkscape:window-y="-9"
     inkscape:window-maximized="1"
     inkscape:current-layer="layer1" />
  <defs
     id="defs273">
    <style
       id="style271">.cls-1{fill:#ffbe21;}.cls-12,.cls-14,.cls-16,.cls-17,.cls-18,.cls-19,.cls-2,.cls-20,.cls-6{fill:none;stroke-width:4px;}.cls-12,.cls-14,.cls-2{stroke:#a15842;}.cls-14,.cls-16,.cls-18,.cls-19,.cls-2,.cls-20,.cls-6{stroke-miterlimit:10;}.cls-3{fill:#4756df;}.cls-4{fill:#30242a;}.cls-5{fill:#3ec1f3;}.cls-17,.cls-20,.cls-6{stroke:#30242a;}.cls-12,.cls-14,.cls-16,.cls-17,.cls-19,.cls-6{stroke-linecap:round;}.cls-7{fill:#ff7235;}.cls-8{fill:#f5ebdd;}.cls-9{fill:#4856df;}.cls-10{fill:#ffb7d5;}.cls-11{fill:#a15842;}.cls-12,.cls-17{stroke-linejoin:round;}.cls-13{fill:#eaa58b;}.cls-15{fill:#eaa58a;}.cls-16{stroke:#eaa58b;}.cls-18,.cls-19{stroke:#4756df;}</style>
  </defs>
  <title
     id="title275">wfh_1</title>
  <g
     id="Layer_7"
     data-name="Layer 7"
     style="display:none"
     transform="translate(-259.93365,-119.88452)">
    <rect
       class="cls-1"
       x="436.10999"
       y="624.57001"
       width="24.559999"
       height="417.42999"
       id="rect277" />
    <line
       class="cls-2"
       x1="460.67999"
       y1="630.31"
       x2="436.10999"
       y2="630.31"
       id="line279" />
    <path
       class="cls-3"
       d="m 324.66,958.24 a 36.41,36.41 0 0 1 68.76,0 36.41,36.41 0 0 1 32.37,-24.37 90.7,90.7 0 0 0 -11.42,-16 L 401.15,903 a 30.12,30.12 0 0 1 -4,-34.33 l 11.22,-20.85 v 0 c -3.15,3.17 -21.36,20.22 -49,20.22 -27.64,0 -45.85,-17.05 -49,-20.22 h -0.05 l 11.23,20.85 A 30.1,30.1 0 0 1 317.43,903 l -13.21,14.81 a 91.09,91.09 0 0 0 -11.45,16 36.42,36.42 0 0 1 31.89,24.43 z"
       id="path281" />
    <path
       class="cls-3"
       d="m 427.8,979.31 a 36.41,36.41 0 0 0 -34.38,24.44 36.4,36.4 0 0 0 -68.76,0 36.43,36.43 0 0 0 -43.48,-23.29 90.57,90.57 0 0 0 26,61.54 h 104.19 a 90.57,90.57 0 0 0 26,-61.4 36.22,36.22 0 0 0 -9.57,-1.29 z"
       id="path283" />
    <path
       class="cls-4"
       d="m 359.29,868.08 c 27.64,0 45.85,-17.05 49,-20.22 h -98 c 3.15,3.14 21.36,20.22 49,20.22 z"
       id="path285" />
    <path
       class="cls-5"
       d="m 324.66,1003.75 a 36.4,36.4 0 0 1 68.76,0 36.4,36.4 0 0 1 44,-23.15 90.7,90.7 0 0 0 -11.61,-46.73 36.41,36.41 0 0 0 -32.37,24.37 36.41,36.41 0 0 0 -68.76,0 36.42,36.42 0 0 0 -31.89,-24.34 90.68,90.68 0 0 0 -11.59,46.56 36.43,36.43 0 0 1 43.48,23.29 z"
       id="path287" />
    <path
       class="cls-6"
       d="m 366.55,865.22 c 2,-12.24 11.09,-60.76 33.95,-87.13"
       id="path289" />
    <path
       class="cls-6"
       d="m 356,865.57 c -0.15,-13.9 -1.58,-82.15 -15.15,-122.87"
       id="path291" />
    <ellipse
       class="cls-4"
       cx="412.51001"
       cy="809.71002"
       rx="39.650002"
       ry="8.9200001"
       transform="rotate(-23.75,412.38849,809.57728)"
       id="ellipse293" />
    <ellipse
       class="cls-4"
       cx="409.98001"
       cy="689.21997"
       rx="21.940001"
       ry="7.6500001"
       transform="rotate(-53.51,409.96128,689.20597)"
       id="ellipse295" />
    <ellipse
       class="cls-4"
       cx="306.39001"
       cy="816.37"
       rx="47.849998"
       ry="8.4499998"
       transform="rotate(-8.6,306.46979,816.63523)"
       id="ellipse297" />
    <path
       class="cls-7"
       d="m 289.36,756.58 v 0.07 a 17.69,17.69 0 0 1 -14.44,32.15 v 0.06 c 21.9,9.84 42.91,10.59 46.91,1.68 4,-8.91 -10.56,-24.12 -32.47,-33.96 z"
       id="path299" />
    <path
       class="cls-7"
       d="m 354.11,685.26 c -4.66,-1.21 -10.72,5.84 -15.15,16.75 -5.33,-13.25 -13.06,-22.12 -18.27,-20.4 -5.21,1.72 -6.14,13.44 -2.53,27.26 -10.06,-6.12 -19.12,-8.18 -22.15,-4.43 -3.86,4.78 3.58,17.18 16.62,27.71 a 74.71,74.71 0 0 0 11.92,7.94 17.68,17.68 0 0 1 28.05,-9.6 75,75 0 0 0 4.66,-13.08 c 4.21,-16.21 2.8,-30.61 -3.15,-32.15 z"
       id="path301" />
    <path
       class="cls-7"
       d="m 455.77,758.87 c -1.44,-4.6 -10.63,-6 -22.23,-4 8.42,-11.53 11.86,-22.78 7.65,-26.29 -4.21,-3.51 -14.66,1.9 -24.48,12.27 -0.12,-11.78 -3.17,-20.56 -7.95,-21.15 -6.09,-0.75 -12.69,12.13 -14.73,28.75 a 74.91,74.91 0 0 0 -0.44,14.33 17.68,17.68 0 0 1 23,18.73 75.87,75.87 0 0 0 13.57,-3 c 15.97,-4.97 27.44,-13.78 25.61,-19.64 z"
       id="path303" />
    <path
       class="cls-4"
       d="m 410.31,766 a 17.66,17.66 0 0 0 -16.72,-3.25 c 0.57,7.91 2.57,14 5.58,16.21 2.81,2.6 9.31,3.47 17.4,2.52 A 17.65,17.65 0 0 0 410.31,766 Z"
       id="path305" />
    <path
       class="cls-4"
       d="m 336.15,727.62 a 17.67,17.67 0 0 0 -11.6,12.47 c 7,3.7 13.22,5.2 16.72,3.84 3.69,-1 7.86,-6.07 11.33,-13.44 a 17.65,17.65 0 0 0 -16.45,-2.87 z"
       id="path307" />
    <path
       class="cls-8"
       d="m 291.31,786.27 a 8.59,8.59 0 0 1 7.05,-15.6 17.67,17.67 0 0 0 -9,-14 l -14.47,32.13 a 17.69,17.69 0 0 0 16.42,-2.53 z"
       id="path309" />
    <path
       class="cls-9"
       d="m 287.63,775.24 a 8.59,8.59 0 0 0 3.68,11 17.63,17.63 0 0 0 7.05,-15.6 8.59,8.59 0 0 0 -10.73,4.6 z"
       id="path311" />
    <path
       class="cls-10"
       d="M 948.49,791.38 H 694.16 l 4.3,-17.06 H 810.1 L 852.68,607.8 a 105.42,105.42 0 0 1 102.13,-79.3 v 0 c 57.29,0 99.21,54 85,109.5 l -26.31,102.89 a 67.12,67.12 0 0 1 -65.01,50.49 z"
       id="path313" />
    <rect
       class="cls-11"
       x="768.14001"
       y="876.96002"
       width="18.059999"
       height="162.09"
       transform="rotate(-90,777.17,958)"
       id="rect315" />
    <path
       class="cls-11"
       d="M 884.92,1032.3 842.76,781.35 H 711.58 l -42.16,250.95 a 8.33,8.33 0 0 0 8.22,9.7 v 0 a 8.34,8.34 0 0 0 8.14,-6.56 L 741,781.35 h 72.38 l 55.2,254.09 a 8.33,8.33 0 0 0 8.14,6.56 v 0 a 8.33,8.33 0 0 0 8.2,-9.7 z"
       id="path317" />
    <rect
       class="cls-1"
       x="902.42999"
       y="876.96002"
       width="18.059999"
       height="162.09"
       transform="rotate(-90,911.455,958.005)"
       id="rect319" />
    <path
       class="cls-1"
       d="M 1019.2,1032.3 977,781.35 H 845.87 l -42.16,250.95 a 8.33,8.33 0 0 0 8.22,9.7 v 0 a 8.32,8.32 0 0 0 8.13,-6.56 l 55.2,-254.09 h 72.39 l 55.2,254.09 a 8.33,8.33 0 0 0 8.15,6.56 v 0 a 8.33,8.33 0 0 0 8.2,-9.7 z"
       id="path321" />
    <path
       class="cls-10"
       d="M 886.71,740.89 902.79,678 H 796.22 a 94.11,94.11 0 0 0 -91.17,70.78 l -10.89,42.6 h 127.53 a 67.12,67.12 0 0 0 65.02,-50.49 z"
       id="path323" />
    <line
       class="cls-12"
       x1="701.09003"
       y1="772.65002"
       x2="836.39001"
       y2="772.65002"
       id="line325" />
    <line
       class="cls-12"
       x1="810.58002"
       y1="772.02002"
       x2="834.28998"
       y2="679.32001"
       id="line327" />
    <line
       class="cls-12"
       x1="1028"
       y1="675.84998"
       x2="964"
       y2="675.84998"
       id="line329" />
    <line
       class="cls-12"
       x1="1040"
       y1="630.84998"
       x2="958"
       y2="630.84998"
       id="line331" />
    <path
       class="cls-7"
       d="m 741.31,610.53 c 0,0 -80.23,21.85 -114.31,38.9 -56.19,28.09 -56,46.63 -90.26,150.42 -31.63,95.92 -35.11,142.41 -78.74,144.25 -33.31,1.4 -44.23,12.3 -49.63,27.24 l 131.81,62.54 a 6.55,6.55 0 0 0 8.55,-2.78 v 0 a 6.55,6.55 0 0 0 -2.47,-8.8 l -2.77,-1.6 c 12.25,-14.84 35.88,-46.46 59.44,-94.49 l 15,7 c 0,0 24.23,-31.49 28.07,-67.21 5,-46.13 2,-77.22 23.07,-95.27 l 245.7,-160.24 z"
       id="path333" />
    <path
       class="cls-4"
       d="m 445.05,951.51 c 2.61,-5.43 17.11,-38.51 25.45,-34.51 10.85,5.2 -17.31,38.41 -17.31,38.41 z"
       id="path335" />
    <path
       class="cls-4"
       d="m 408.36,971.81 131.81,62.53 a 6.54,6.54 0 0 0 6.08,-11.57 l -2.77,-1.6 0.28,-0.34 -90.6,-42.77 A 56.18,56.18 0 0 0 456,966.44 c 13.56,2.35 41,4.88 41.14,-6.43 0.15,-10.54 -29.82,-6.31 -40.77,-3.33 a 44.65,44.65 0 0 0 -2.34,-11.89 c -30.21,2.08 -40.49,12.68 -45.67,27.02 z"
       id="path337" />
    <path
       class="cls-10"
       d="m 627,649.43 c -6.31,3.15 -11.9,6.18 -16.91,9.22 l -7.69,24.63 29.6,-20.85 27.29,21.76 -10.06,-29.83 30.91,-14.16 -23.89,-3 A 297.55,297.55 0 0 0 627,649.43 Z"
       id="path339" />
    <polygon
       class="cls-10"
       points="714.21,636.61 712.21,649.64 725.25,644.63 "
       id="polygon341" />
    <polygon
       class="cls-10"
       points="608.91,740.9 583.84,761.96 615.93,757.95 626.97,795.06 638,757.95 673.1,747.92 639,733.88 639,701.79 619.95,726.86 592.87,713.83 "
       id="polygon343" />
    <path
       class="cls-10"
       d="m 531.9,893.21 2.34,-6.68 32,-1.7 -26,-17.7 11.58,-27.73 -26.19,17.46 -5,-5.4 c -4,13.17 -7.54,24.9 -11,35.21 h 0.16 c 0.38,-1.13 0.76,-2.27 1.14,-3.43 z"
       id="path345" />
    <path
       class="cls-13"
       d="m 531.9,893.21 -21,-9.93 c -0.38,1.16 -0.76,2.3 -1.14,3.43 -12.69,37.8 -24.25,56.7 -51.74,57.86 -1.35,0 -2.65,0.13 -3.93,0.22 a 44.65,44.65 0 0 1 2.34,11.89 c 11,-3 40.92,-7.21 40.77,3.33 -0.16,11.31 -27.58,8.78 -41.14,6.43 a 56.18,56.18 0 0 1 -2.87,11.62 l 90.6,42.77 c 12.32,-15 35.75,-46.46 59.13,-94.09 z"
       id="path347" />
    <path
       class="cls-10"
       d="m 611.92,817.12 -3,27.08 -28.08,-1 24.07,18.06 -9,32.09 24.09,-21.07 21.65,14.44 q 0.9,-2.87 1.65,-5.81 l -8.3,-20.67 12.86,-14.09 c 0.21,-2.62 0.41,-5.2 0.6,-7.71 L 626,842.19 Z"
       id="path349" />
    <path
       class="cls-10"
       d="m 549.37,760.83 c -2.53,7.82 -5.25,16.31 -8.25,25.54 L 567.8,788 Z"
       id="path351" />
    <path
       class="cls-4"
       d="m 643.58,1005.13 c 0.42,-6 1.73,-42.1 10.95,-41.45 12,0.84 -1.95,42.08 -1.95,42.08 z"
       id="path353" />
    <path
       class="cls-7"
       d="m 865.67,612 c 0,0 -100.29,18.6 -155.45,41.66 -55.69,23.29 -55.15,64.65 -45.13,177 9,100.58 25.08,149.42 -8,164.46 -30.34,13.8 -40.88,31.1 -39.44,46.92 H 767 a 6.41,6.41 0 0 0 6.41,-6.41 v 0 a 6.41,6.41 0 0 0 -6.41,-6.41 h -2.52 c 4.71,-15.41 11.54,-45.49 12.48,-95.27 h 18.52 c 0,0 9.52,-44 -1,-83.24 -11,-41.11 -21.06,-48.13 -27.07,-76.21 h 89.87 c 68.63,0 120,-63.48 105.07,-130.46 -4.66,-20.93 -11.42,-32 -11.42,-32 z"
       id="path355" />
    <polygon
       class="cls-10"
       points="773.4,711.82 751.34,741.91 780.42,729.87 796.63,759.75 798.47,726.86 826.55,720.85 802.49,705.8 803.49,670.7 785.08,693.86 756.41,684.01 "
       id="polygon357" />
    <path
       class="cls-10"
       d="m 763.43,849.48 17,27.81 -22.06,30.09 29.08,-12 10.78,19.87 c 1.58,-15.44 2.36,-38.28 -2.68,-60.21 l -3.44,4.33 z"
       id="path359" />
    <path
       class="cls-10"
       d="m 688.45,933.91 -1.29,-15.5 32.56,-12.56 -30.82,-6.39 3.4,-33.83 -20,26.17 -0.6,-0.25 c 1.92,16.15 3.6,30.26 4.54,42.47 v -0.11 z"
       id="path361" />
    <path
       class="cls-13"
       d="m 767,1029.18 h -2.52 c 4.71,-15.41 11.54,-45.49 12.48,-95.27 H 676.21 V 934 c 0.08,1 0.15,2 0.22,3 0,0.09 0,0.19 0,0.28 2.09,31.25 -1.32,49.53 -19.38,57.74 -30.34,13.8 -40.88,31.1 -39.44,46.92 H 767 a 6.41,6.41 0 0 0 0,-12.82 z"
       id="path363" />
    <polygon
       class="cls-10"
       points="829.98,652.91 866.69,657.82 879.11,685.33 891.88,656.84 929.22,650.94 896.79,634.24 900.72,614.59 854.65,618.67 859.45,637.19 "
       id="polygon365" />
    <path
       class="cls-10"
       d="m 681.14,744.91 11,-35.1 32.09,5 -25.07,-22.06 18,-21.06 -33.09,12 -5.29,-9.07 c -8.51,9.64 -13.65,21.61 -16.4,37 l 5.64,0.18 z"
       id="path367" />
    <path
       class="cls-10"
       d="m 767,634.8 c -6.77,1.88 -13.51,3.85 -20.09,5.88 l 26.51,18 z"
       id="path369" />
    <polygon
       class="cls-10"
       points="676.13,798.07 700.19,819.13 685.15,854.23 711.26,829.89 732.9,854.84 726.27,817.12 748.33,788.04 723.26,797.06 709.22,767.98 702.2,800.07 "
       id="polygon371" />
    <path
       class="cls-4"
       d="m 663.73,1017.45 c 13.26,-3.66 39.14,-13.08 34.46,-23.37 -4.36,-9.6 -29.66,7 -38.29,14.39 a 44.19,44.19 0 0 0 -8.25,-10.78 c -26.18,13.33 -35.37,29.47 -34,44.31 H 767 a 6.41,6.41 0 0 0 6.41,-6.41 v 0 A 6.41,6.41 0 0 0 767,1029.18 H 666.1 a 56.84,56.84 0 0 0 -2.37,-11.73 z"
       id="path373" />
    <line
       class="cls-14"
       x1="767"
       y1="776.71002"
       x2="741.17999"
       y2="776.34998"
       id="line375" />
    <path
       class="cls-14"
       d="m 786.2,630.42 c -26.75,6.82 -55.34,15.19 -77,24.23 C 663,674 655.51,705.76 660,780.24"
       id="path377" />
    <rect
       class="cls-1"
       x="1101.12"
       y="624.57001"
       width="24.559999"
       height="417.42999"
       id="rect379" />
    <line
       class="cls-2"
       x1="1125.6801"
       y1="630.31"
       x2="1101.12"
       y2="630.31"
       id="line381" />
    <path
       class="cls-11"
       d="m 769.39,310.68 c -14,-2 -46.07,13.05 -47.13,42.8 -1.06,29.75 25.5,39.31 29.75,41.44 l 61.63,-9.57 4.25,-68 z"
       id="path383" />
    <circle
       class="cls-11"
       cx="878.27002"
       cy="188.89999"
       r="47.900002"
       id="circle385" />
    <path
       class="cls-4"
       d="m 847.2,221.84 c 2.92,1.35 -21.67,-57 -34.22,-47.9 -11.81,8.59 19.39,41.06 34.22,47.9 z"
       id="path387" />
    <path
       class="cls-4"
       d="m 848.56,225.41 c 2.68,3.2 65.42,-18.75 56.74,-31.41 -8.3,-12.18 -59.42,28.2 -56.74,31.41 z"
       id="path389" />
    <path
       class="cls-13"
       d="m 931.85,385.89 c 0,0 42.12,-35.1 15,-74.21 -17.26,-24.93 -64.19,-15 -64.19,-15 1.14,-13.69 4.86,-53.13 -24.8,-74.8 -29.66,-21.67 -67.29,-10.26 -81,6.84 -13.71,17.1 -10.26,49.05 -14.82,71.86 -4.56,22.81 -1.52,38.32 12.54,45.62 12.79,6.64 27.84,2.63 27.84,2.63 l -1.6,24.07 c 0,0 -29,1.09 -46.77,7.52 -42.82,15.5 -118.05,121.8 -118.05,121.8 -47.13,-2 -91.26,-4 -91.26,-4 l 23.07,68.2 c 0,0 58.16,19.05 100.28,8 42.73,-11.19 83.24,-71.2 83.24,-71.2 l 14,40.11 -24.07,67.19 h 209.6 l -35.1,-62.18 c 6.07,-55.14 16.09,-162.45 16.09,-162.45 z"
       id="path391" />
    <path
       class="cls-3"
       d="m 864.5,370.4 -55,99.73 L 787,373.9 c -9.89,1 -23.07,2.94 -32.85,6.48 C 711.23,395.92 636,502.22 636,502.22 c -47.13,-2 -91.26,-4 -91.26,-4 l 23.07,68.2 c 0,0 58.16,19.05 100.28,8 42.73,-11.19 83.24,-71.2 83.24,-71.2 l 14,40.11 -24.07,67.19 h 209.6 l -35.1,-62.17 c 6,-55.16 16,-162.47 16,-162.47 a 97.26,97.26 0 0 0 -30.08,-12 c -11.97,-2.7 -25.13,-1.09 -37.18,-3.48 z"
       id="path393" />
    <path
       class="cls-4"
       d="M 579.67,603.51 H 753.35 L 713.86,478.79 A 18.13,18.13 0 0 0 696.57,466.12 H 549.79 a 18.13,18.13 0 0 0 -17.29,23.62 l 32.64,103.14 a 15.24,15.24 0 0 0 14.53,10.63 z"
       id="path395" />
    <path
       class="cls-11"
       d="m 605.55,522.54 c 4.61,-6.3 25.52,10.34 27.06,11.71 0.8,-1.37 11.69,-18 19.67,-11.71 6.93,5.46 -8.3,29.85 -12.35,36.07 a 1.81,1.81 0 0 1 -2.69,0 C 629.85,552.39 601.55,528 605.55,522.54 Z"
       id="path397" />
    <ellipse
       class="cls-11"
       cx="627.85999"
       cy="517.12"
       rx="3.3099999"
       ry="10.13"
       transform="rotate(-17.3,627.75594,517.05504)"
       id="ellipse399" />
    <path
       class="cls-4"
       d="m 854.2,589.47 a 10.79,10.79 0 0 1 -10.28,14 H 579.67 a 15.24,15.24 0 0 1 -14.53,-10.63 l -1.08,-3.41 z"
       id="path401" />
    <rect
       class="cls-1"
       x="393.79001"
       y="603.51001"
       width="774.21002"
       height="25.07"
       id="rect403" />
    <path
       class="cls-10"
       d="M 1013.49,740.89 1029.57,678 h -93.8 a 94.1,94.1 0 0 0 -91.16,70.78 l -10.9,42.6 h 114.75 a 67.13,67.13 0 0 0 65.03,-50.49 z"
       id="path405" />
    <line
       class="cls-12"
       x1="835.92999"
       y1="774.89001"
       x2="832.21997"
       y2="790.57001"
       id="line407" />
    <path
       class="cls-15"
       d="m 536.38,501.83 c -11.67,5.83 -17.5,15.55 -17.5,22.36 0,9.94 10.12,11.81 10.12,11.81 0,0 -7.55,11.87 5.58,17.44 0,0 0,12.22 12.23,12.22 0,0 -1.62,9.53 11.14,10.43 12.76,0.9 25.89,-5.76 27,-10.07 1.27,-5.09 -2.16,-9.35 -11.42,-10.7 0,0 12.5,-5.84 10.52,-13.21 -1.98,-7.37 -10.43,-7.2 -10.43,-7.2 0,0 8.09,-4.85 3.77,-12 -4.32,-7.15 -12.58,-4.67 -12.58,-4.67 0,0 2.16,-5 -1.62,-8.81 -4.5,-4.5 -23.85,1.18 -23.85,1.18 z"
       id="path409" />
    <path
       class="cls-14"
       d="m 546.9,566.13 a 145.84,145.84 0 0 0 30.46,-11"
       id="path411" />
    <path
       class="cls-14"
       d="m 534.55,553.38 a 156,156 0 0 0 41.38,-18.13"
       id="path413" />
    <path
       class="cls-14"
       d="m 528,537.42 a 129.2,129.2 0 0 0 37.84,-18.33"
       id="path415" />
    <path
       class="cls-11"
       d="m 946.9,311.68 c -17.26,-24.93 -64.19,-15 -64.19,-15 1.14,-13.69 4.86,-53.13 -24.8,-74.8 -29.66,-21.67 -67.29,-10.26 -81,6.84 -5.58,7 -8.31,16.42 -9.9,26.7 9.1,1.53 22.45,-1.6 22.45,-1.6 18.25,20.53 34.6,23.79 34.6,23.79 12.77,-12.77 35.17,-12.35 38.81,7 3.78,20.09 -28.31,29.12 -28.31,29.12 0,0 -3,36.1 13,49.14 a 37.57,37.57 0 0 0 16.89,7.57 c 12,2.39 25.21,0.78 37.27,3.46 a 97.26,97.26 0 0 1 30.08,12 77,77 0 0 0 10,-10.66 c 10.52,-13.34 23.1,-37.56 5.1,-63.56 z"
       id="path417" />
    <path
       class="cls-16"
       d="m 808.5,246.5 c -6,5 -13,8 -21.06,10"
       id="path419" />
    <path
       class="cls-14"
       d="m 802.09,351.08 a 74.52,74.52 0 0 0 13.41,-6"
       id="path421" />
    <line
       class="cls-14"
       x1="835.78998"
       y1="293.56"
       x2="844.90997"
       y2="287.85999"
       id="line423" />
    <path
       class="cls-14"
       d="m 783.46,320.33 c 1.89,1.17 9,2.08 11.82,-3.35"
       id="path425" />
    <circle
       class="cls-4"
       cx="802.03998"
       cy="291.25"
       r="3.4200001"
       id="circle427" />
    <circle
       class="cls-4"
       cx="773.69"
       cy="286.72"
       r="3.4200001"
       id="circle429" />
    <path
       class="cls-14"
       d="m 783.32,299.93 c -0.68,2.15 -1.27,4.49 -0.88,5.27 a 5.76,5.76 0 0 0 2.34,2.33"
       id="path431" />
    <circle
       class="cls-8"
       cx="840.08002"
       cy="315.09"
       r="11.98"
       id="circle433" />
    <ellipse
       class="cls-6"
       cx="765.02002"
       cy="285.23001"
       rx="19.65"
       ry="17.690001"
       transform="rotate(-78.99,765.07275,285.20849)"
       id="ellipse435" />
    <ellipse
       class="cls-6"
       cx="808.46997"
       cy="290.56"
       rx="19.65"
       ry="17.690001"
       transform="rotate(-78.99,808.52133,290.53734)"
       id="ellipse437" />
    <line
       class="cls-6"
       x1="783.27002"
       y1="287.03"
       x2="790.17999"
       y2="287.76999"
       id="line439" />
    <line
       class="cls-6"
       x1="885"
       y1="298"
       x2="883.01001"
       y2="310.79999"
       id="line441" />
    <line
       class="cls-17"
       x1="740.31"
       y1="477.14999"
       x2="749.98999"
       y2="505.32001"
       id="line443" />
    <line
       class="cls-17"
       x1="791.45001"
       y1="541.33002"
       x2="766"
       y2="541.33002"
       id="line445" />
    <polyline
       class="cls-17"
       points="811.51 469.13 819.53 508.24 819.53 544.34"
       id="polyline447" />
    <polyline
       class="cls-17"
       points="758.17 379.51 773.4 413.97 755.35 411.97 819.53 508.24"
       id="polyline449" />
    <polyline
       class="cls-17"
       points="906.56 375.41 880.71 411.97 904.78 409.96 816.52 488.18"
       id="polyline451" />
    <line
       class="cls-17"
       x1="920"
       y1="498"
       x2="900.77002"
       y2="471.14001"
       id="line453" />
    <path
       class="cls-17"
       d="m 942.25,597 c -10.47,-3.49 -29.26,-10.23 -40.59,-17"
       id="path455" />
    <circle
       class="cls-10"
       cx="653.45001"
       cy="328.5"
       r="19.67"
       id="circle457" />
    <rect
       class="cls-3"
       x="571.01001"
       y="241.44"
       width="27.940001"
       height="10.32"
       rx="5"
       transform="rotate(50.33,584.96181,246.58815)"
       id="rect459" />
    <path
       class="cls-5"
       d="M 615.26,267 603.74,253.1 396.67,424.8 a 8.85,8.85 0 0 0 -1.16,12.46 l 0.23,0.28 a 8.84,8.84 0 0 0 12.45,1.16 L 472.93,385 V 573.43 H 491 V 370 Z"
       id="path461" />
    <path
       class="cls-18"
       d="m 581.89,271 5.77,7 a 24.76,24.76 0 0 1 4.5,8.22"
       id="path463" />
    <circle
       class="cls-3"
       cx="481.95999"
       cy="365.60001"
       r="23.57"
       id="circle465" />
    <circle
       class="cls-5"
       cx="481.95999"
       cy="365.60001"
       r="9.0600004"
       id="circle467" />
    <line
       class="cls-2"
       x1="669.59998"
       y1="317.32999"
       x2="639.45001"
       y2="342.25"
       id="line469" />
    <path
       class="cls-5"
       d="m 630.54,264.48 a 24.82,24.82 0 0 1 -16.22,-8.82 l -8,-9.67 a 16.7,16.7 0 0 0 -23.5,-2.19 v 0 a 16.68,16.68 0 0 0 -2.19,23.49 l 8,9.7 a 24.81,24.81 0 0 1 5.63,17.52 l -2,29.24 a 66.91,66.91 0 0 0 10.36,40.64 l 2.56,4 95.93,-79.57 -3.44,-3.23 a 66.88,66.88 0 0 0 -38,-17.71 z"
       id="path471" />
    <path
       class="cls-5"
       d="m 491,573.43 h -18.07 l -26.71,7.28 a 23.63,23.63 0 0 0 -17.41,22.8 h 106.3 a 23.63,23.63 0 0 0 -17.42,-22.8 z"
       id="path473" />
    <line
       class="cls-19"
       x1="682.90997"
       y1="274.67001"
       x2="595.12"
       y2="347.23001"
       id="line475" />
    <line
       class="cls-19"
       x1="472.48999"
       y1="571.35999"
       x2="491"
       y2="571.35999"
       id="line477" />
    <line
       class="cls-19"
       x1="432.32001"
       y1="591.01001"
       x2="531"
       y2="591.01001"
       id="line479" />
    <path
       class="cls-4"
       d="m 1001.06,861.49 c 2,-17 1,-55.16 -21.06,-84.24 -22.06,-29.08 8,-17 17,-9 14.4,12.8 27.08,25.07 38.11,66.19 z"
       id="path481" />
    <path
       class="cls-11"
       d="m 1267.43,1042 h 117.73 v -3.85 a 20.47,20.47 0 0 0 -20.47,-20.46 h -97.87 z"
       id="path483" />
    <path
       class="cls-11"
       d="m 980.24,929.6 24.83,112.4 h 46.14 v -7 a 17.05,17.05 0 0 0 -17,-17.05 v 0 c 0,0 23.06,-17.29 37.1,-34.34 0,0 24.07,29.33 58.17,24.31 l 2.47,12 A 27.67,27.67 0 0 0 1159,1042 h 111.83 c 49.6,0 74,-7.57 75.4,-35.81 a 8,8 0 0 0 -8,-8.32 h -31.22 a 8.6,8.6 0 0 1 -6.71,-3.21 l -13.29,-16.49 A 32.76,32.76 0 0 0 1253.44,967 l -26.73,6.83 c 0,0 -47.36,-68.06 -90.26,-115.33 -41,-45.13 -118.12,-50 -148.5,8.78 a 92.39,92.39 0 0 0 -7.71,62.32 z"
       id="path485" />
    <path
       class="cls-20"
       d="m 1259.8,1042 v -3.85 a 20.46,20.46 0 0 0 -20.47,-20.46 h -13.63"
       id="path487" />
    <path
       class="cls-6"
       d="m 1073.17,984.41 c 7,-8.33 30.89,-39 29.18,-69 -1.83,-32.1 -21.06,-49.14 -21.06,-49.14"
       id="path489" />
    <path
       class="cls-6"
       d="m 1123.41,965.54 c 0,0 1.28,23.73 3.85,41.45"
       id="path491" />
    <line
       class="cls-6"
       x1="1027.14"
       y1="1031.73"
       x2="1027.14"
       y2="1041"
       id="line493" />
    <line
       class="cls-6"
       x1="1038.17"
       y1="1031.73"
       x2="1038.17"
       y2="1041"
       id="line495" />
    <line
       class="cls-6"
       x1="1237.74"
       y1="1031.73"
       x2="1237.74"
       y2="1041"
       id="line497" />
    <line
       class="cls-6"
       x1="1248.77"
       y1="1031.73"
       x2="1248.77"
       y2="1041"
       id="line499" />
    <circle
       class="cls-4"
       cx="1278.35"
       cy="1000.14"
       r="4.5100002"
       id="circle501" />
    <path
       class="cls-4"
       d="m 1253.74,966.91 v -0.12 l -27.07,7 26.73,-6.83 z"
       id="path503" />
    <path
       class="cls-4"
       d="m 1187.12,1018.14 c -7.84,4 -18.92,11.83 -18,23.69 h 43.54 l 9.15,-14.43 a 16.59,16.59 0 0 1 14,-7.71 h 2.91 l 14.92,-52.48 -0.22,-0.23 -26.73,6.83 -25.59,32.78 a 42.16,42.16 0 0 1 -13.98,11.55 z"
       id="path505" />
    <path
       class="cls-13"
       d="m 1123.53,883 c 0,0 -12.11,41.92 27,57.75 19.83,8 36.3,1.93 47.73,-6 -17.27,-23 -40.12,-52.28 -61.82,-76.2 a 105.15,105.15 0 0 0 -18.22,-15.91 c -5.92,8.06 -12.4,28 5.31,40.36 z"
       id="path507" />
    <circle
       class="cls-13"
       cx="1023.63"
       cy="896.84998"
       r="16.549999"
       id="circle509" />
    <path
       class="cls-4"
       d="m 1338.27,997.87 h -6 a 11.56,11.56 0 0 0 11.31,13.8 11.16,11.16 0 0 0 2.1,-0.2 43,43 0 0 0 0.59,-5.28 8,8 0 0 0 -8,-8.32 z"
       id="path511" />
    <line
       class="cls-6"
       x1="1362.09"
       y1="1031.73"
       x2="1362.09"
       y2="1040.77"
       id="line513" />
    <line
       class="cls-6"
       x1="1373.12"
       y1="1031.73"
       x2="1373.12"
       y2="1040.77"
       id="line515" />
    <path
       class="cls-17"
       d="m 1301.57,1040.8 c 24.52,-2.47 39.14,-9.11 44.45,-23.24"
       id="path517" />
    <path
       class="cls-15"
       d="m 901.77,514.67 a 237.33,237.33 0 0 0 -37.11,-0.41 c -17.68,1.45 -41.45,6.08 -51,10.7 -9.55,4.62 -46.12,20.93 -36.27,26.4 9,5 27.88,-2.52 27.88,-2.52 0,0 -18.84,17.32 -22.08,24.57 -3.24,7.25 7.47,11.32 7.47,11.32 2.82,12.38 15.44,7.06 15.44,7.06 7.95,16.91 50.9,-19.73 50.9,-19.73 a 105.64,105.64 0 0 0 30.63,-1.29 c 0,0 5.44,3.05 14.17,7.29 z"
       id="path519" />
    <path
       class="cls-3"
       d="M 1009.07,599.5 C 1089.3,561.39 973,419 931.85,385.89 l -23.06,93.27 29.08,40.11 c -12.74,-2.2 -24.92,-3.71 -36.1,-4.6 v 63.39 c 25.46,12.38 78.96,34.94 107.3,21.44 z"
       id="path521" />
    <path
       class="cls-14"
       d="m 801.43,549.89 c 7.12,-5.89 18.94,-15.41 27.76,-21.15"
       id="path523" />
    <path
       class="cls-14"
       d="m 838.91,542.81 c -20.49,13.27 -39.16,31 -48.4,40.28"
       id="path525" />
    <path
       class="cls-14"
       d="M 848,557.82 C 834,567.43 817.75,582 807.14,592"
       id="path527" />
    <path
       class="cls-5"
       d="m 1088.7,552.43 a 5.73,5.73 0 0 1 5.72,5.72 V 559 a 5.73,5.73 0 0 1 -5.72,5.72 h -29.47 v -12.29 h 29.47 m 0,-8 h -36.39 a 1.08,1.08 0 0 0 -1.08,1.09 v 26.15 a 1.08,1.08 0 0 0 1.08,1.08 h 36.39 A 13.72,13.72 0 0 0 1102.42,559 v -0.88 A 13.72,13.72 0 0 0 1088.7,544.4 Z"
       id="path529" />
    <path
       class="cls-5"
       d="m 1044.7,540.12 c -29.8,0 -43.57,-23.75 -43.57,-23.75 l 20,87.14 h 47.08 l 20,-87.14 a 51.15,51.15 0 0 1 -43.51,23.75 z"
       id="path531" />
    <path
       class="cls-4"
       d="m 1044.7,540.12 a 51.15,51.15 0 0 0 43.57,-23.75 h -87.14 c 0,0 13.77,23.75 43.57,23.75 z"
       id="path533" />
  </g>
  <g
     inkscape:groupmode="layer"
     id="layer1"
     inkscape:label="Wil"
     transform="translate(-393.93365,-119.88452)">
    <path
       style="display:inline;fill:#692d83;fill-opacity:1;stroke:#ba4646;stroke-width:0;stroke-linecap:round;stroke-dasharray:none;stroke-opacity:1"
       d="m 846.06635,836.11548 c 0,0 45.8039,9.695 62,25 4.5519,4.30146 8,17 8,17 l -139,-2 -3,-42 z"
       id="path23323"
       sodipodi:nodetypes="cscccc"
       transform="translate(259.93365,119.88452)" />
    <path
       style="fill:#692d83;fill-opacity:1;stroke:#ba4646;stroke-width:0;stroke-linecap:round;stroke-dasharray:none;stroke-opacity:1"
       d="m 936,956 c 0,0 -45.06533,9.06476 -61.16177,23.89706 C 869.9,984.44746 866,998 866,998 l 139,-2 3,-42 z"
       id="path23088"
       sodipodi:nodetypes="cscccc" />
    <path
       style="fill:#361a42;fill-opacity:1;stroke:#ba4646;stroke-width:0;stroke-linecap:round;stroke-dasharray:none;stroke-opacity:1"
       d="m 935,698.5 -6.5,258.5 81,7 6.2607,-197.87438 8.8177,-0.009 8.4216,197.88299 77,-6 -13,-265.5 z"
       id="path20640"
       sodipodi:nodetypes="ccccccccc" />
    <path
       style="fill:#7c5442;fill-opacity:1;stroke:#000000;stroke-width:0;stroke-dasharray:none;stroke-opacity:1"
       d="m 1001,234 c 35.4202,-0.71952 68.289,5.59588 100,36 39.7732,38.13407 63,126 48,137 -15,11 -30,-62 -30,-62 0,0 19,105 -9,111 -28,6 -43,-45 -43,-45 l -121,6 c 0,0 5,40 -26,41 -31,1 -21,-62 -21,-62 0,0 -5,20 -22,13 -17,-7 2.18207,-102.12166 33,-138 21.33599,-24.83944 58.26195,-36.33497 91,-37 z"
       id="path4915"
       sodipodi:nodetypes="asscsccscsaa" />
    <rect
       style="display:none;fill:#ffffff;fill-opacity:0;stroke:#000000;stroke-width:2;stroke-dasharray:none;stroke-opacity:1"
       id="rect928"
       width="1123.3414"
       height="924.32428"
       x="260.93365"
       y="120.88452"
       ry="5.1400886" />
    <ellipse
       style="fill:#f9d6cb;fill-opacity:1;stroke:#000000;stroke-width:0;stroke-dasharray:none;stroke-opacity:1"
       id="path2524"
       cy="376.65848"
       cx="1013.5135"
       rx="100.9828"
       ry="109.82801" />
    <ellipse
       style="fill:#b047da;fill-opacity:1;stroke:#000000;stroke-width:0;stroke-dasharray:none;stroke-opacity:1"
       id="path4036"
       ry="88.029488"
       rx="84.99263"
       cy="581.00262"
       cx="1014.731" />
    <ellipse
       style="fill:#b047da;fill-opacity:1;stroke:#000000;stroke-width:0;stroke-dasharray:none;stroke-opacity:1"
       id="path4153"
       cx="1016"
       cy="652"
       rx="82"
       ry="63" />
    <path
       style="fill:#f9d6cb;fill-opacity:1;stroke:#000000;stroke-width:0;stroke-dasharray:none;stroke-opacity:1"
       d="m 998.5,478 -0.5,18.5 c 0,0 12.1182,10.59303 19.5,10.5 6.718,-0.0847 17.5,-10 17.5,-10 l -0.5,-21.5 z"
       id="path7382"
       sodipodi:nodetypes="ccsccc" />
    <path
       style="fill:#7c5442;fill-opacity:1;stroke:#000000;stroke-width:0;stroke-dasharray:none;stroke-opacity:1"
       d="m 934.69239,311.37868 c 0,0 -9.69239,0.62132 70.30761,46.62132 80,46 32.5,-43 32.5,-43 0,0 47.5,73 78.5,104 31,31 24,-71 10,-102 -14,-31 -48,-82 -142,-69 -94,13 -49.30761,63.37868 -49.30761,63.37868 z"
       id="path4209"
       sodipodi:nodetypes="cscsssc" />
    <path
       style="fill:#7c5442;fill-opacity:1;stroke:#000000;stroke-width:0;stroke-dasharray:none;stroke-opacity:1"
       d="m 957,294 c 0,0 -19.5,69 -47.5,90 -28,21 -31.5,-70 17.5,-113 49,-43 30,23 30,23 z"
       id="path4913"
       sodipodi:nodetypes="cssc" />
    <path
       style="fill:#b047da;fill-opacity:1;stroke:#000000;stroke-width:0;stroke-dasharray:none;stroke-opacity:1"
       d="m 930,579 4.5,77 163,1.5 2,-82 z"
       id="path5577"
       sodipodi:nodetypes="ccccc" />
    <ellipse
       style="fill:#000000;fill-opacity:1;stroke:#ba4646;stroke-width:0;stroke-dasharray:none;stroke-opacity:1"
       id="path7652"
       cx="954.74445"
       cy="396.91934"
       rx="9.706646"
       ry="9.3239403" />
    <ellipse
       style="fill:#000000;fill-opacity:1;stroke:#000000;stroke-width:0;stroke-dasharray:none;stroke-opacity:1"
       id="ellipse7812"
       cx="1054.489"
       cy="394.354"
       rx="9.706646"
       ry="9.3239403" />
    <path
       style="fill:#ef9173;fill-opacity:0;stroke:#dca094;stroke-width:6;stroke-linecap:round;stroke-dasharray:none;stroke-opacity:1"
       d="m 994.89924,435.95214 c 0,0 1.38225,11.18513 16.26346,10.25305 13.4273,-0.84102 13.4351,-12.02082 13.4351,-12.02082"
       id="path9320"
       sodipodi:nodetypes="csc" />
    <path
       style="fill:#b047da;fill-opacity:1;stroke:#ba4646;stroke-width:0;stroke-linecap:round;stroke-dasharray:none;stroke-opacity:1"
       d="m 934.5,657 c 0,0 -7.72739,47.04374 7.5,60.5 37.34218,32.99883 112.7266,33.63149 149.5,0 15.1879,-13.89024 6,-65 6,-65 z"
       id="path20068"
       sodipodi:nodetypes="csscc" />
    <path
       style="fill:#f9d6cb;fill-opacity:1;stroke:#ba4646;stroke-width:0;stroke-linecap:round;stroke-dasharray:none;stroke-opacity:1"
       d="m 1109.4505,713.47074 -3.5355,49.49747 -9.1924,7.77818 -3.5355,-66.46804 -20.5061,9.8995 0.7071,-20.5061 27.5772,-23.33452 z"
       id="path22497" />
    <path
       style="fill:#f9d6cb;fill-opacity:1;stroke:#ba4646;stroke-width:0;stroke-linecap:round;stroke-dasharray:none;stroke-opacity:1"
       d="m 787.00984,487.90368 -4.94974,-14.84925 8.24264,-25.8198 -1.41422,-19.79899 -13.43502,5.65685 -7.07107,22.62742 -20.5061,-58.68986 -7.77817,-3.53554 -7.07107,11.31371 10.6066,33.23402 -20.97056,-37.35534 -12.02082,-0.7071 -4.24264,8.48528 21.67767,35.94112 -25.45584,-28.28427 -8.48528,-0.70711 -4.94975,13.43503 24.74874,25.45585 -20.16296,-11.31371 -9.19238,8.48528 8.48528,11.31371 47.98275,32.18376 14.14214,15.55635 z"
       id="path22777"
       sodipodi:nodetypes="cccccccccccccccccccccccc" />
    <path
       style="fill:#b047da;fill-opacity:1;stroke:#ba4646;stroke-width:0;stroke-linecap:round;stroke-dasharray:none;stroke-opacity:1"
       d="m 1042.2754,497.80317 c 0,0 149.9605,45.19064 159.8062,108.89444 7.6918,49.76783 -93.3382,118.79394 -93.3382,118.79394 l -26.1629,-77.78174 48.0833,-36.06245 -79.196,-43.13351 z"
       id="path21009"
       sodipodi:nodetypes="csccccc" />
    <path
       style="fill:#b047da;fill-opacity:1;stroke:#ba4646;stroke-width:0;stroke-linecap:round;stroke-dasharray:none;stroke-opacity:1"
       d="m 988.24618,497.80318 c 0,0 -64.77043,16.09618 -124.45087,56.56854 -17.41088,-16.5104 -67.95321,-78.86753 -67.95321,-78.86753 l -67.81123,34.3198 c 0,0 65.92244,104.04248 118.7939,117.37972 52.87145,13.33723 132.22901,-58.68985 132.22901,-58.68985 z"
       id="path21313"
       sodipodi:nodetypes="cccczcc" />
    <path
       style="fill:#7c5442;fill-opacity:1;stroke:#ba4646;stroke-width:0;stroke-linecap:round;stroke-dasharray:none;stroke-opacity:1"
       d="m 1043,329.25 c 0,0 47.25,70 67.5,82.75 20.25,12.75 -28.25,-82.75 -28.25,-82.75 l -58,-28.5 z"
       id="path23694"
       sodipodi:nodetypes="csccc" />
  </g>
</svg>
